0.06m3min_grf.mot
version=1
nRows=27
nColumns 19
inDegrees=yes
endheader
time	1_ground_force_vx	1_ground_force_vy	1_ground_force_vz	1_ground_force_px	1_ground_force_py	1_ground_force_pz	1_ground_torque_x	1_ground_torque_y	1_ground_torque_z	2_ground_force_vx	2_ground_force_vy	2_ground_force_vz	2_ground_force_px	2_ground_force_py	2_ground_force_pz	2_ground_torque_x	2_ground_torque_y	2_ground_torque_z
            0.005000	           16.970768	          728.146406	          -50.618835	           -0.236951	            0.006338	           -0.432402	            0.028201	            1.210009	           -0.084117	           -2.728896	          868.374056	           74.570697	           -0.220757	            0.005612	           -0.676860	            0.002328	           -0.740697	           -0.063607
            0.005500	           16.923586	          731.752891	          -50.878397	           -0.237200	            0.006337	           -0.432187	            0.026547	            1.147854	           -0.079810	           -2.738948	          871.137019	           74.392841	           -0.220840	            0.005613	           -0.677012	            0.002235	           -0.710903	           -0.060709
            0.006000	           17.244677	          733.194292	          -50.689586	           -0.237182	            0.006339	           -0.432564	            0.031495	            1.339067	           -0.092577	           -2.192556	          875.557376	           74.736860	           -0.220846	            0.005613	           -0.677160	            0.002016	           -0.804931	           -0.068708
            0.006500	           17.840207	          736.799327	          -50.583894	           -0.237108	            0.006338	           -0.432344	            0.037696	            1.556836	           -0.106882	           -1.827103	          878.137156	           74.652043	           -0.220950	            0.005612	           -0.676978	            0.002031	           -0.976250	           -0.082993
            0.007000	           17.977534	          739.142323	          -50.482476	           -0.237056	            0.006338	           -0.432358	            0.039739	            1.633854	           -0.111590	           -1.229209	          881.268759	           74.991458	           -0.220917	            0.005612	           -0.676918	            0.001487	           -1.065738	           -0.090689
            0.007500	           18.115027	          741.845639	          -50.287798	           -0.237034	            0.006338	           -0.432358	            0.040672	            1.665609	           -0.112907	           -1.006381	          884.401061	           74.720960	           -0.221147	            0.005611	           -0.677006	            0.001244	           -1.093556	           -0.092392
            0.008000	           18.160278	          743.828933	          -50.371122	           -0.237104	            0.006339	           -0.432625	            0.039052	            1.599528	           -0.108318	           -0.547728	          887.164042	           75.012185	           -0.221138	            0.005612	           -0.677028	            0.000683	           -1.106392	           -0.093549
            0.008500	           18.205144	          745.452543	          -50.639414	           -0.237230	            0.006340	           -0.432761	            0.036577	            1.497713	           -0.101741	           -0.182857	          889.927232	           75.115738	           -0.221242	            0.005611	           -0.676987	            0.000214	           -1.039366	           -0.087729
            0.009000	           18.524768	          748.698506	          -50.901433	           -0.237339	            0.006338	           -0.432404	            0.038477	            1.555075	           -0.105724	            0.366008	          893.612533	           75.034784	           -0.221305	            0.005610	           -0.676856	           -0.000445	           -1.086186	           -0.091205
            0.009500	           18.616451	          749.959960	          -50.804538	           -0.237296	            0.006340	           -0.432774	            0.040717	            1.640288	           -0.111118	            0.873443	          895.823702	           75.183226	           -0.221233	            0.005611	           -0.676867	           -0.001223	           -1.254700	           -0.105302
            0.010000	           18.707886	          753.204231	          -50.653280	           -0.237255	            0.006339	           -0.432541	            0.046021	            1.852876	           -0.124607	            1.285829	          898.402982	           75.286102	           -0.221359	            0.005610	           -0.676795	           -0.001957	           -1.367014	           -0.114556
            0.010500	           19.120614	          756.808248	          -50.317858	           -0.237428	            0.006337	           -0.432144	            0.049608	            1.963506	           -0.130547	            1.510232	          901.164995	           75.577427	           -0.221433	            0.005610	           -0.676901	           -0.002308	           -1.377203	           -0.115501
            0.011000	           19.350085	          757.889039	          -50.130365	           -0.237338	            0.006338	           -0.432376	            0.049491	            1.938440	           -0.128218	            2.160732	          902.641280	           75.394692	           -0.221509	            0.005609	           -0.676680	           -0.003428	           -1.432004	           -0.119611
            0.011500	           19.534155	          758.428587	          -49.807506	           -0.237383	            0.006339	           -0.432605	            0.048289	            1.874857	           -0.123126	            2.615315	          906.509774	           75.502147	           -0.221577	            0.005609	           -0.676895	           -0.004106	           -1.423117	           -0.118530
            0.012000	           19.718091	          760.950511	          -49.384440	           -0.237365	            0.006339	           -0.432611	            0.047447	            1.831049	           -0.118832	            2.938694	          907.799335	           75.694319	           -0.221660	            0.005608	           -0.676641	           -0.004394	           -1.357247	           -0.113170
            0.012500	           19.670815	          762.574890	          -49.835929	           -0.237460	            0.006340	           -0.432703	            0.046529	            1.803796	           -0.117882	            3.396600	          910.747065	           75.798489	           -0.221688	            0.005608	           -0.676676	           -0.005339	           -1.431602	           -0.119148
            0.013000	           19.946406	          764.015692	          -49.509433	           -0.237494	            0.006340	           -0.432808	            0.052541	            2.012483	           -0.130412	            3.905159	          912.591504	           75.476351	           -0.221781	            0.005608	           -0.676563	           -0.006681	           -1.561323	           -0.129130
            0.013500	           20.312641	          766.179148	          -49.546927	           -0.237376	            0.006339	           -0.432597	            0.057014	            2.150546	           -0.139071	            4.225982	          914.616913	           75.905785	           -0.221774	            0.005607	           -0.676460	           -0.007738	           -1.674770	           -0.138992
            0.014000	           20.588772	          766.537705	          -49.087505	           -0.237497	            0.006341	           -0.432972	            0.061145	            2.276478	           -0.145781	            4.592121	          917.012324	           75.867247	           -0.221840	            0.005607	           -0.676585	           -0.008514	           -1.700232	           -0.140665
            0.014500	           20.680860	          768.699534	          -48.757462	           -0.237433	            0.006340	           -0.432869	            0.061254	            2.276784	           -0.144413	            5.152243	          917.567506	           75.681267	           -0.221885	            0.005606	           -0.676333	           -0.009765	           -1.739121	           -0.143443
            0.015000	           20.772316	          769.961503	          -48.752278	           -0.237410	            0.006341	           -0.432972	            0.057649	            2.136869	           -0.135302	            5.464159	          921.988858	           75.509184	           -0.221957	            0.005607	           -0.676599	           -0.010249	           -1.729376	           -0.141633
            0.015500	           20.726939	          771.762714	          -48.423447	           -0.237435	            0.006340	           -0.432882	            0.055630	            2.071367	           -0.129966	            5.837732	          922.357656	           75.744972	           -0.222021	            0.005606	           -0.676397	           -0.010985	           -1.735625	           -0.142531
            0.016000	           20.818883	          772.843600	          -48.235613	           -0.237247	            0.006341	           -0.433009	            0.058271	            2.163146	           -0.135009	            6.252173	          924.383951	           75.986668	           -0.222060	            0.005606	           -0.676398	           -0.012062	           -1.783424	           -0.146602
            0.016500	           20.865033	          774.284752	          -48.000260	           -0.237418	            0.006340	           -0.432900	            0.063147	            2.343331	           -0.145270	            6.434071	          925.859381	           75.569484	           -0.221984	            0.005606	           -0.676386	           -0.013314	           -1.915824	           -0.156371
            0.017000	           21.002444	          775.546411	          -47.949339	           -0.237445	            0.006340	           -0.432774	            0.065835	            2.431070	           -0.150305	            6.849094	          927.702143	           75.622811	           -0.222059	            0.005606	           -0.676397	           -0.014739	           -1.996400	           -0.162739
            0.017500	           20.911360	          775.365114	          -47.720601	           -0.237302	            0.006342	           -0.433189	            0.067135	            2.489285	           -0.153205	            7.079980	          928.624088	           75.532141	           -0.222149	            0.005605	           -0.676149	           -0.015362	           -2.014923	           -0.163889
            0.018000	           20.819654	          777.347398	          -47.574307	           -0.237403	            0.006341	           -0.432972	            0.064252	            2.399002	           -0.146821	            7.634868	          930.651727	           75.539129	           -0.222171	            0.005605	           -0.676291	           -0.016559	           -2.018443	           -0.163833
